<svg width="29" height="41" viewBox="0 0 29 41" fill="none" xmlns="http://www.w3.org/2000/svg">
<path d="M22.4072 38.6077H5.97131C3.61144 38.6077 1.69824 36.6924 1.69824 34.3259V5.98843C1.69824 3.622 3.61144 1.70251 5.97131 1.70251H22.4072C24.7675 1.70251 26.6802 3.622 26.6802 5.98843V34.3259C26.6802 35.5815 26.1406 36.7136 25.2804 37.4968C24.5216 38.1863 23.5136 38.6077 22.4072 38.6077ZM14.2304 27.0607C11.9538 27.0607 10.1081 28.9121 10.1081 31.1934C10.1081 33.4747 11.9538 35.3261 14.2304 35.3261C16.5071 35.3261 18.3528 33.4747 18.3528 31.1934C18.3528 28.9121 16.5071 27.0607 14.2304 27.0607ZM14.2304 8.06115C11.9538 8.06115 10.1081 9.90839 10.1081 12.1939C10.1081 14.4752 11.9538 16.3267 14.2304 16.3267C16.5071 16.3267 18.3528 14.4752 18.3528 12.1939C18.3528 9.90839 16.5071 8.06115 14.2304 8.06115Z" fill="url(#paint0_linear_96_7477)"/>
<path d="M22.4073 -3.05176e-05H5.97142C2.67873 -3.05176e-05 0 2.68557 0 5.98835V34.3259C0 37.6244 2.67873 40.3101 5.97142 40.3101H22.4073C25.7 40.3101 28.3787 37.6244 28.3787 34.3259V5.98835C28.3787 2.68557 25.7 -3.05176e-05 22.4073 -3.05176e-05ZM22.4073 1.70243C24.7676 1.70243 26.6803 3.62193 26.6803 5.98835V34.3259C26.6803 36.6923 24.7676 38.6076 22.4073 38.6076H5.97142C3.61156 38.6076 1.69836 36.6923 1.69836 34.3259V5.98835C1.69836 3.62193 3.61156 1.70243 5.97142 1.70243H22.4073Z" fill="#333333"/>
<path d="M14.2306 16.3267C11.954 16.3267 10.1083 14.4752 10.1083 12.1939C10.1083 9.90839 11.954 8.06115 14.2306 8.06115C16.5073 8.06115 18.353 9.90839 18.353 12.1939C18.353 14.4752 16.5073 16.3267 14.2306 16.3267Z" fill="url(#paint1_linear_96_7477)"/>
<path d="M18.353 10.3254C18.353 12.6067 16.5073 14.4581 14.2306 14.4581C11.954 14.4581 10.1083 12.6067 10.1083 10.3254C10.1083 8.04411 11.954 6.1927 14.2306 6.1927C16.5073 6.1927 18.353 8.04411 18.353 10.3254Z" fill="url(#paint2_linear_96_7477)"/>
<path d="M14.2306 35.3262C11.954 35.3262 10.1083 33.4748 10.1083 31.1935C10.1083 28.9122 11.954 27.0607 14.2306 27.0607C16.5073 27.0607 18.353 28.9122 18.353 31.1935C18.353 33.4748 16.5073 35.3262 14.2306 35.3262Z" fill="url(#paint3_linear_96_7477)"/>
<path d="M18.353 29.3249C18.353 31.6104 16.5073 33.4576 14.2306 33.4576C11.954 33.4576 10.1083 31.6104 10.1083 29.3249C10.1083 27.0436 11.954 25.1964 14.2306 25.1964C16.5073 25.1964 18.353 27.0436 18.353 29.3249Z" fill="url(#paint4_linear_96_7477)"/>
<path d="M14.2304 5.34155C11.4893 5.34155 9.25891 7.57602 9.25891 10.3255C9.25891 13.075 11.4893 15.3094 14.2304 15.3094C16.972 15.3094 19.2015 13.075 19.2015 10.3255C19.2015 7.57602 16.972 5.34155 14.2304 5.34155ZM14.2304 6.19278C16.5071 6.19278 18.3523 8.0442 18.3523 10.3255C18.3523 12.6068 16.5071 14.4582 14.2304 14.4582C11.9538 14.4582 10.1081 12.6068 10.1081 10.3255C10.1081 8.0442 11.9538 6.19278 14.2304 6.19278Z" fill="#333333"/>
<path d="M14.2304 24.3453C11.4893 24.3453 9.25891 26.5797 9.25891 29.325C9.25891 32.0744 11.4893 34.309 14.2304 34.309C16.972 34.309 19.2015 32.0744 19.2015 29.325C19.2015 26.5797 16.972 24.3453 14.2304 24.3453ZM14.2304 25.1965C16.5071 25.1965 18.3523 27.0437 18.3523 29.325C18.3523 31.6105 16.5071 33.4577 14.2304 33.4577C11.9538 33.4577 10.1081 31.6105 10.1081 29.325C10.1081 27.0437 11.9538 25.1965 14.2304 25.1965Z" fill="#333333"/>
<defs>
<linearGradient id="paint0_linear_96_7477" x1="14.1892" y1="38.6077" x2="14.1892" y2="1.70263" gradientUnits="userSpaceOnUse">
<stop stop-color="#666666"/>
<stop offset="0.579261" stop-color="#666666"/>
<stop offset="1" stop-color="white"/>
</linearGradient>
<linearGradient id="paint1_linear_96_7477" x1="14.1894" y1="38.6078" x2="14.1894" y2="1.70253" gradientUnits="userSpaceOnUse">
<stop stop-color="#474747"/>
<stop offset="0.579261" stop-color="#474747"/>
<stop offset="1" stop-color="#B2B2B2"/>
</linearGradient>
<linearGradient id="paint2_linear_96_7477" x1="14.2306" y1="14.4581" x2="14.2306" y2="6.19368" gradientUnits="userSpaceOnUse">
<stop stop-color="#999999"/>
<stop offset="0.262363" stop-color="#999999"/>
<stop offset="1" stop-color="white"/>
</linearGradient>
<linearGradient id="paint3_linear_96_7477" x1="14.1894" y1="38.6077" x2="14.1894" y2="1.70258" gradientUnits="userSpaceOnUse">
<stop stop-color="#474747"/>
<stop offset="0.579261" stop-color="#474747"/>
<stop offset="1" stop-color="#B2B2B2"/>
</linearGradient>
<linearGradient id="paint4_linear_96_7477" x1="14.2306" y1="33.4576" x2="14.2306" y2="25.1932" gradientUnits="userSpaceOnUse">
<stop stop-color="#999999"/>
<stop offset="0.621737" stop-color="#999999"/>
<stop offset="1" stop-color="white"/>
</linearGradient>
</defs>
</svg>
